<svg xmlns="http://www.w3.org/2000/svg" viewBox="0 0 24 24">
    <title>luci-vue-pwa</title>
    <defs>
    <!-- 第一个渐变 -->
    <linearGradient id="grad1" x1="0%" y1="100%" x2="100%" y2="0%">
      <stop offset="25%" style="stop-color:#7ee777;" />
      <stop offset="85%" style="stop-color:#393bff;" />
    </linearGradient>
    <!-- 第二个渐变 -->
    <linearGradient id="grad2" x1="0%" y1="0%" x2="100%" y2="0%">
      <stop offset="30%" style="stop-color:#508050;" />
      <stop offset="60%" style="stop-color:#6a37b6;" />
      <stop offset="100%" style="stop-color:#ab2611;" />
    </linearGradient>
    <!-- 第三个渐变 -->
    <linearGradient id="grad3" x1="0%" y1="0%" x2="0%" y2="100%">
      <stop offset="0%" style="stop-color:#333;" />
      <stop offset="100%" style="stop-color:rgb(192,192,192);" />
    </linearGradient>
    </defs>
    <!-- 第一部分 -->
    <path d="M12,21L15.6,16.2C14.6,15.45 13.35,15 12,15C10.65,15 9.4,15.45 8.4,16.2L12,21"
        fill="url(#grad3)" />
    <!-- 第二部分 -->
    <path
        d="M12,3C7.95,3 4.21,4.34 1.2,6.6L3,9C5.5,7.12 8.62,6 12,6C15.38,6 18.5,7.12 21,9L22.8,6.6C19.79,4.34 16.05,3 12,3"
        fill="url(#grad1)" />
    <!-- 第三部分 -->
    <path
        d="M12,9C9.3,9 6.81,9.89 4.8,11.4L6.6,13.8C8.1,12.67 9.97,12 12,12C14.03,12 15.9,12.67 17.4,13.8L19.2,11.4C17.19,9.89 14.7,9 12,9"
        fill="url(#grad2)" />
</svg>